#!OML:ASF F:\VICON\USERDATA\INSTALL\rory3\rory3.ASF
:FULLY-SPECIFIED
:DEGREES
2169
root 0.547353 18.5528 0.170319 -0.467736 -6.60926 0.115306
lowerback 4.6305 0.549407 -2.53953
upperback 0.194363 0.617917 0.802819
thorax -2.43244 0.340595 2.21042
lowerneck -9.64561 -0.097091 -7.99649
upperneck 11.1611 0.00762928 8.23299
head 4.91936 0.199661 3.88822
rclavicle -2.65874e-015 1.2921e-015
rhumerus -20.9669 -45.5715 -17.1792
rradius 14.2146
rwrist 35.8239
rhand -30.8165 3.02499
rfingers 7.12502
rthumb -4.10597 -26.9152
lclavicle -2.65874e-015 1.2921e-015
lhumerus -35.476 38.8541 5.39232
lradius 12.503
lwrist -8.5455
lhand -24.2031 25.5726
lfingers 7.12502
lthumb 2.28117 55.5401
rfemur -8.41455 24.4321 16.2581
rtibia 29.0009
rfoot -19.2931 -10.2038
rtoes -4.60764
lfemur -0.882233 -3.89948 -19.4283
ltibia 25.5635
lfoot -23.3954 21.4919
ltoes -4.3641
2170
root 0.546947 18.5617 0.173023 -0.305772 -6.66992 -0.0209278
lowerback 4.59709 0.497619 -2.40956
upperback 0.113213 0.557074 0.842662
thorax -2.49289 0.310734 2.18246
lowerneck -9.3945 0.0270533 -7.92608
upperneck 10.96 0.187607 7.99047
head 4.8008 0.270975 3.80611
rclavicle 2.65253e-015 9.93923e-017
rhumerus -22.0726 -45.8162 -15.8817
rradius 14.1255
rwrist 36.3196
rhand -30.8333 2.69579
rfingers 7.12502
rthumb -4.12214 -27.2441
lclavicle 2.65253e-015 9.93923e-017
lhumerus -37.2507 38.6926 3.84081
lradius 12.5268
lwrist -7.34425
lhand -23.9699 25.9504
lfingers 7.12502
lthumb 2.50642 55.9154
rfemur -8.4598 24.4106 16.3282
rtibia 28.7317
rfoot -19.1624 -10.1544
rtoes -5.00715
lfemur -0.936045 -4.11292 -19.3236
ltibia 25.4371
lfoot -23.506 21.6833
ltoes -4.07244
2171
root 0.544661 18.5671 0.175951 -0.216936 -6.73404 0.0118382
lowerback 4.57608 0.464536 -2.44035
upperback 0.0690272 0.510867 0.814832
thorax -2.52406 0.28882 2.17421
lowerneck -9.29543 0.136577 -7.87445
upperneck 10.8761 0.343 7.84739
head 4.74611 0.338726 3.76007
rclavicle -3.75827e-016 2.08724e-015
rhumerus -23.074 -45.7614 -14.7004
rradius 14.0925
rwrist 36.4627
rhand -30.818 2.28039
rfingers 7.12502
rthumb -4.10736 -27.6598
lclavicle -3.75827e-016 2.08724e-015
lhumerus -38.9736 38.7797 2.12315
lradius 12.5222
lwrist -6.54007
lhand -23.8529 26.4497
lfingers 7.12502
lthumb 2.61947 56.4133
rfemur -8.45505 24.4182 16.2369
rtibia 28.5037
rfoot -19.095 -10.0741
rtoes -4.88122
lfemur -0.894366 -4.33879 -19.4117
ltibia 25.2677
lfoot -23.6757 21.8788
ltoes -3.77389
2172
root 0.541998 18.5717 0.174555 -0.130205 -6.8371 0.00568277
lowerback 4.58964 0.460641 -2.43512
upperback 0.0400985 0.505042 0.799336
thorax -2.56095 0.286576 2.15553
lowerneck -9.38248 0.225826 -7.82667
upperneck 10.9161 0.475328 7.73454
head 4.76289 0.400035 3.72633
rclavicle -1.14581e-014 -9.93923e-017
rhumerus -24.0962 -46.019 -13.3952
rradius 14.0827
rwrist 36.8838
rhand -30.752 2.21947
rfingers 7.12502
rthumb -4.04362 -27.7219
lclavicle -1.14581e-014 -9.93923e-017
lhumerus -41.0147 39.8305 -0.38554
lradius 12.3691
lwrist -6.9734
lhand -23.6212 26.7352
lfingers 7.12502
lthumb 2.84321 56.696
rfemur -8.49164 24.4933 16.1864
rtibia 28.3246
rfoot -19.0714 -10.0248
rtoes -4.48924
lfemur -0.844177 -4.56926 -19.4562
ltibia 25.0487
lfoot -23.8444 22.0952
ltoes -3.22169
2173
root 0.537018 18.5765 0.170677 -0.0464041 -6.98165 -0.0305318
lowerback 4.5911 0.498955 -2.40177
upperback 0.021587 0.557158 0.777426
thorax -2.58319 0.312503 2.11056
lowerneck -9.39891 0.269457 -7.76445
upperneck 10.9242 0.541144 7.61373
head 4.76365 0.427577 3.68229
rclavicle -8.54153e-015 3.27995e-015
rhumerus -25.2791 -46.6311 -11.8162
rradius 14.0857
rwrist 37.6822
rhand -30.5026 2.79128
rfingers 7.12502
rthumb -3.8028 -27.1545
lclavicle -8.54153e-015 3.27995e-015
lhumerus -44.7881 43.8426 -5.98836
lradius 11.8232
lwrist -11.3093
lhand -23.4438 26.8907
lfingers 7.12502
lthumb 3.0145 56.8492
rfemur -8.57276 24.6492 16.1758
rtibia 28.2043
rfoot -19.0685 -9.95762
rtoes -3.96392
lfemur -0.771866 -4.79421 -19.4563
ltibia 24.7797
lfoot -24.0451 22.2928
ltoes -2.39355
2174
root 0.531364 18.5792 0.170152 -0.037479 -7.07176 0.0390434
lowerback 4.59955 0.514556 -2.44306
upperback 0.0198756 0.573696 0.708002
thorax -2.59029 0.320945 2.06099
lowerneck -9.36913 0.318359 -7.69088
upperneck 10.8932 0.607183 7.52231
head 4.74463 0.456853 3.64465
rclavicle -6.25551e-015 -2.98177e-016
rhumerus -26.2269 -46.7179 -10.5311
rradius 14.1427
rwrist 37.8804
rhand -30.5423 3.29273
rfingers 7.12502
rthumb -3.84117 -26.6524
lclavicle -6.25551e-015 -2.98177e-016
lhumerus -51.2118 49.4339 -15.1304
lradius 11.1919
lwrist -18.2637
lhand -23.7615 27.2474
lfingers 7.12502
lthumb 2.70765 57.21
rfemur -8.56816 24.7349 16.0925
rtibia 28.1324
rfoot -19.0896 -9.91354
rtoes -3.94519
lfemur -0.61105 -5.00077 -19.5692
ltibia 24.472
lfoot -24.0531 22.5694
ltoes -2.26152
